# xmcd
#
# Track frame offsets: 
#        150
#        11598
#        24648
#        33412
#        47016
#        59102
#        71764
#        78800
#        88649
#        101327
#        114688
#        128564
#        140503
#        151773
#
# Disc length: 2155 seconds
#
# Revision: 0
# Processed by: cddbd v1.5.1PL0 Copyright (c) Steve Scherf et al.
# Submitted via: ExactAudioCopy v0.95a5
#
DISCID=b208690e
DTITLE=Okeh Wranglers - Honky Tonk Crazy
DYEAR=1997
DGENRE=Honky Tonk
TTITLE0=Corn Sipping
TTITLE1=It's Too Late Now
TTITLE2=Flower Of The Wasatch
TTITLE3=Crying My Heart Over You
TTITLE4=I Can't Face Tomorrow
TTITLE5=Beau Night In Hotchkiss Corners
TTITLE6=Kajalena
TTITLE7=Sure Getting Wise Babe
TTITLE8=Won't You Write Me A Letter
TTITLE9=So Easy
TTITLE10=Night And Day
TTITLE11=Baby, It's Too Bad
TTITLE12=Something Has Come Between Us
TTITLE13=Honky Tonk Crazy
EXTD=
EXTT0=
EXTT1=
EXTT2=
EXTT3=
EXTT4=
EXTT5=
EXTT6=
EXTT7=
EXTT8=
EXTT9=
EXTT10=
EXTT11=
EXTT12=
EXTT13=
PLAYORDER=
